<svg width="32" height="32" viewBox="0 0 32 32" fill="none" xmlns="http://www.w3.org/2000/svg">
<g clip-path="url(#clip0_2481_110397)">
<path d="M16 0C7.16367 0 0 7.16293 0 16C0 24.8371 7.16367 32 16 32C24.8363 32 32 24.8371 32 16C32 7.16293 24.8363 0 16 0ZM23.8061 23.065C23.5491 23.52 23.0764 23.776 22.5891 23.776C22.3612 23.776 22.1261 23.719 21.9103 23.599C19.9127 22.479 17.7358 21.793 15.4351 21.56C13.1297 21.329 10.8533 21.5629 8.66667 22.2611C7.937 22.4941 7.15153 22.0909 6.9188 21.36C6.68367 20.6279 7.08847 19.8451 7.8206 19.6109C10.3709 18.7961 13.0303 18.519 15.7163 18.792C18.3975 19.065 20.9382 19.865 23.2703 21.1721C23.9418 21.5459 24.1818 22.3939 23.8061 23.065ZM25.7212 18.2051C25.4739 18.681 24.9891 18.9539 24.4873 18.9539C24.2691 18.9539 24.0509 18.904 23.8449 18.7961C21.3891 17.5171 18.7369 16.7251 15.9563 16.4429C13.1539 16.1561 10.3782 16.4061 7.7018 17.1779C6.9624 17.3879 6.19153 16.9651 5.98062 16.2259C5.76729 15.488 6.19393 14.7171 6.93093 14.504C9.95153 13.633 13.0836 13.3539 16.2376 13.6739C19.3697 13.993 22.3612 14.8851 25.1321 16.329C25.8109 16.6841 26.0776 17.5239 25.7212 18.2051ZM26.4145 14.1619C26.2061 14.1619 25.9951 14.1149 25.7939 14.016C22.88 12.5629 19.7455 11.6579 16.4751 11.3261C13.2 10.991 9.9418 11.2499 6.78787 12.0921C6.04606 12.289 5.28485 11.849 5.08605 11.1059C4.88727 10.3639 5.3285 9.601 6.07274 9.40293C9.55153 8.47393 13.1491 8.191 16.7588 8.55807C20.3637 8.92293 23.8206 9.92193 27.0351 11.5251C27.7237 11.8679 28.0024 12.704 27.6606 13.391C27.4182 13.88 26.9261 14.1619 26.4145 14.1619Z" fill="#141416"/>
</g>
<defs>
<clipPath id="clip0_2481_110397">
<rect width="32" height="32" fill="white"/>
</clipPath>
</defs>
</svg>
